<?xml version="1.0" encoding="utf-8"?>
<!-- Generator: Adobe Illustrator 16.0.0, SVG Export Plug-In . SVG Version: 6.00 Build 0)  -->
<!DOCTYPE svg PUBLIC "-//W3C//DTD SVG 1.1//EN" "http://www.w3.org/Graphics/SVG/1.1/DTD/svg11.dtd">
<svg version="1.1" id="Laag_1" xmlns="http://www.w3.org/2000/svg" xmlns:xlink="http://www.w3.org/1999/xlink" x="0px" y="0px"
	 width="880px" height="153.157px" viewBox="0 0 880 153.157" enable-background="new 0 0 880 153.157"
	 xml:space="preserve">
<path id="beer1_3_" fill-rule="evenodd" clip-rule="evenodd" fill="none" stroke="#706F6F" stroke-width="3" stroke-miterlimit="10" d="
	M135.65,96.159c-0.415,0.094-0.829,0.271-1.249,0.289c-3.879,0.139-7.761,0.305-11.643,0.363c-6.85,0.094-13.701,0.158-20.551,0.172
	c-25.368,0.076-50.731,0.172-76.097,0.174c-7.328,0.002-14.656-0.275-21.985-0.43C3.821,96.72,3.49,96.753,3.22,96.644
	c-0.285-0.111-0.512-0.373-0.765-0.561c0.265-0.213,0.511-0.576,0.799-0.617c1.294-0.17,2.6-0.271,3.905-0.338
	c1.026-0.057,1.234-0.467,0.72-1.314C7.007,92.36,6.1,90.931,5.282,89.45c-0.764-1.371-0.665-2.684,0.321-4
	c0.468-0.629,0.597-1.502,0.918-2.242c0.601-1.393,1.201-2.785,1.854-4.152c1.475-3.082,3.156-6.078,4.414-9.246
	c0.817-2.055,0.865-4.402,1.559-6.518c1.749-5.334,3.139-10.82,6.62-15.445c4.676-6.215,10.22-11.361,17.337-14.716
	c2.804-1.319,5.824-1.364,8.804-1.659c3.945-0.393,7.901-0.672,11.834-1.164c2.953-0.369,5.433-2.004,7.995-3.402
	c2.542-1.39,5.208-2.553,7.783-3.893c3.019-1.57,6.045-0.619,8.993,0.023c2.265,0.496,4.371,1.668,6.612,2.328
	c2.453,0.725,4.98,1.193,7.469,1.797c3.974,0.965,7.949,1.914,11.905,2.944c1.145,0.298,2.044,0.188,3.042-0.503
	c2.384-1.656,4.453-1.504,6.199,0.377c0.454,0.49,1.041,1.257,0.942,1.779c-0.234,1.223,0.553,1.692,1.196,2.367
	c2.063,2.17,4.146,4.321,6.11,6.579c0.567,0.652,1.028,1.616,1.059,2.456c0.059,1.573,0.8,2.697,1.739,3.805
	c1.372,1.615,2.709,3.264,4.084,4.88c0.819,0.964,0.788,2.004,0.015,2.845c-1.719,1.87-3.49,3.703-5.395,5.373
	c-0.516,0.457-1.618,0.482-2.399,0.363c-2.059-0.313-4.074-1.055-6.177-0.293c-0.124,0.049-0.293,0.031-0.374,0.111
	c-1.884,1.816-3.833,0.621-5.74,0.105c-1.38-0.377-2.667-1.316-4.193-0.479c-0.193,0.113-0.544,0.064-0.764-0.031
	c-1.796-0.807-3.67-0.959-5.545-0.484c-1.733,0.447-3.628,0.439-5.131,1.584c-0.315,0.244-0.68,0.703-0.663,1.039
	c0.188,4.768,0.841,9.365,3.768,13.441c1.584,2.203,2.678,4.752,4.036,7.123c0.971,1.693,1.944,3.396,3.042,5.014
	c1.062,1.572,2.798,2.23,4.539,2.639c2.435,0.576,4.076,2.012,5.314,4.092c0.239,0.408,0.911,0.762,1.397,0.779
	c4.709,0.17,9.421,0.262,14.13,0.402c0.573,0.02,1.14,0.207,1.709,0.326C135.643,95.913,135.646,96.032,135.65,96.159z
	 M78.385,76.396c-1.149,2.604-2.223,5.006-3.284,7.412c-0.562,1.275-1.205,2.521-1.63,3.834c-0.537,1.684,0.007,2.568,1.767,2.898
	c2.116,0.41,3.652,1.463,4.709,3.359c0.26,0.467,0.984,0.963,1.5,0.969c5.863,0.068,11.731,0.051,18.035,0.051
	C91.409,89.696,85.143,82.997,78.385,76.396z M41.925,94.999c-1.508-5.947-3.881-11.139-7.941-15.643
	c-0.574,0.475-1.075,0.863-1.563,1.283c-0.826,0.707-1.558,1.564-2.48,2.119c-3.735,2.213-7.534,4.33-11.288,6.525
	c-0.389,0.223-0.941,0.846-0.855,1.07c0.182,0.471,0.674,1.043,1.146,1.158c1.732,0.445,3.072,1.361,4.169,2.748
	c0.285,0.357,0.84,0.703,1.274,0.709C30.145,95.011,35.907,94.999,41.925,94.999z M62.077,71.042
	c-2.447,0.742-4.813,1.451-7.15,2.234c-0.249,0.086-0.461,0.668-0.463,1.016c-0.005,1.389,0.178,2.781,0.106,4.162
	c-0.186,3.688-0.447,7.369-0.732,11.045c-0.063,0.82,0.31,1.08,1.017,1.162c0.688,0.078,1.392,0.117,2.057,0.291
	c1.449,0.367,2.156,1.484,2.76,2.742c0.256,0.531,0.734,1.24,1.206,1.322c1.132,0.197,2.325,0.063,3.585,0.063
	c-0.926-3.721-1.837-7.344-2.765-11.07c-1.024,0.07-1.27-0.742-1.202-1.688c0.089-1.385,0.28-2.758,0.41-4.131
	c0.042-0.426,0.146-0.896,0.033-1.285C60.32,74.786,61.443,73.065,62.077,71.042z"/>
<rect x="146.053" y="14.657" fill-rule="evenodd" clip-rule="evenodd" fill="none" width="451" height="82.5"/>
<text transform="matrix(1.0995 0 0 1 146.0532 96.5869)" font-family="'MyriadPro-Semibold'" font-size="115.3965">KODIAK</text>
<text transform="matrix(1.3872 0 0 1 193.0527 138.208)" fill="#575756" font-family="'MyriadPro-Regular'" font-size="59.7974">MEUBELMAKERS</text>
<path fill-rule="evenodd" clip-rule="evenodd" fill="none" stroke="#010202" stroke-width="2" stroke-miterlimit="10" d="
	M38.305,33.131"/>
<path fill="#FFFFFF" stroke="#000000" stroke-miterlimit="10" d="M47.109,31.472"/>
</svg>
