<?xml version="1.0" encoding="utf-8"?>
<!-- Generator: Adobe Illustrator 16.0.0, SVG Export Plug-In . SVG Version: 6.00 Build 0)  -->
<!DOCTYPE svg PUBLIC "-//W3C//DTD SVG 1.1//EN" "http://www.w3.org/Graphics/SVG/1.1/DTD/svg11.dtd">
<svg version="1.1" xmlns="http://www.w3.org/2000/svg" xmlns:xlink="http://www.w3.org/1999/xlink" x="0px" y="0px"
	 width="763.484px" height="117.811px" viewBox="0 0 763.484 117.811" enable-background="new 0 0 763.484 117.811"
	 xml:space="preserve">
<g id="Laag_1" display="none">
	
		<path id="beer1_3_" display="inline" fill-rule="evenodd" clip-rule="evenodd" fill="none" stroke="#706F6F" stroke-width="3" stroke-miterlimit="10" d="
		M135.65,75.502c-0.415,0.094-0.829,0.271-1.249,0.289c-3.879,0.139-7.761,0.305-11.643,0.363
		c-6.85,0.094-13.701,0.158-20.551,0.172c-25.368,0.076-50.731,0.172-76.097,0.174c-7.328,0.002-14.656-0.275-21.985-0.43
		c-0.305-0.008-0.636,0.025-0.906-0.084c-0.285-0.111-0.512-0.373-0.765-0.561c0.265-0.213,0.511-0.576,0.799-0.617
		c1.294-0.17,2.6-0.271,3.905-0.338c1.026-0.057,1.234-0.467,0.72-1.314c-0.873-1.453-1.78-2.883-2.598-4.363
		c-0.764-1.371-0.665-2.684,0.321-4c0.468-0.629,0.597-1.502,0.918-2.242c0.601-1.393,1.201-2.785,1.854-4.152
		c1.475-3.082,3.156-6.078,4.414-9.246c0.817-2.055,0.865-4.402,1.559-6.518c1.749-5.334,3.139-10.82,6.62-15.445
		c4.676-6.215,10.22-11.361,17.337-14.716c2.804-1.319,5.824-1.364,8.804-1.659c3.945-0.393,7.901-0.672,11.834-1.164
		c2.953-0.369,5.433-2.004,7.995-3.402c2.542-1.39,5.208-2.553,7.783-3.893c3.019-1.57,6.045-0.619,8.993,0.023
		c2.265,0.496,4.371,1.668,6.612,2.328c2.453,0.725,4.98,1.193,7.469,1.797c3.974,0.965,7.949,1.914,11.905,2.944
		c1.145,0.298,2.044,0.188,3.042-0.503c2.384-1.656,4.453-1.504,6.199,0.377c0.454,0.49,1.041,1.257,0.942,1.779
		c-0.234,1.223,0.553,1.692,1.196,2.367c2.063,2.17,4.146,4.321,6.11,6.579c0.567,0.652,1.028,1.616,1.059,2.456
		c0.059,1.573,0.8,2.697,1.739,3.805c1.372,1.615,2.709,3.264,4.084,4.88c0.819,0.964,0.788,2.004,0.015,2.845
		c-1.719,1.87-3.49,3.703-5.395,5.373c-0.516,0.457-1.618,0.482-2.399,0.363c-2.059-0.313-4.074-1.055-6.177-0.293
		c-0.124,0.049-0.293,0.031-0.374,0.111c-1.884,1.816-3.833,0.621-5.74,0.105c-1.38-0.377-2.667-1.316-4.193-0.479
		c-0.193,0.113-0.544,0.064-0.764-0.031c-1.796-0.807-3.67-0.959-5.545-0.484c-1.733,0.447-3.628,0.439-5.131,1.584
		c-0.315,0.244-0.68,0.703-0.663,1.039c0.188,4.768,0.841,9.365,3.768,13.441c1.584,2.203,2.678,4.752,4.036,7.123
		c0.971,1.693,1.944,3.396,3.042,5.014c1.062,1.572,2.798,2.23,4.539,2.639c2.435,0.576,4.076,2.012,5.314,4.092
		c0.239,0.408,0.911,0.762,1.397,0.779c4.709,0.17,9.421,0.262,14.13,0.402c0.573,0.02,1.14,0.207,1.709,0.326
		C135.643,75.256,135.646,75.375,135.65,75.502z M78.385,55.738c-1.149,2.604-2.223,5.006-3.284,7.412
		c-0.562,1.275-1.205,2.521-1.63,3.834c-0.537,1.684,0.007,2.568,1.767,2.898c2.116,0.41,3.652,1.463,4.709,3.359
		c0.26,0.467,0.984,0.963,1.5,0.969c5.863,0.068,11.731,0.051,18.035,0.051C91.409,69.039,85.143,62.34,78.385,55.738z
		 M41.925,74.342c-1.508-5.947-3.881-11.139-7.941-15.643c-0.574,0.475-1.075,0.863-1.563,1.283
		c-0.826,0.707-1.558,1.564-2.48,2.119c-3.735,2.213-7.534,4.33-11.288,6.525c-0.389,0.223-0.941,0.846-0.855,1.07
		c0.182,0.471,0.674,1.043,1.146,1.158c1.732,0.445,3.072,1.361,4.169,2.748c0.285,0.357,0.84,0.703,1.274,0.709
		C30.145,74.354,35.907,74.342,41.925,74.342z M62.077,50.385c-2.447,0.742-4.813,1.451-7.15,2.234
		c-0.249,0.086-0.461,0.668-0.463,1.016c-0.005,1.389,0.178,2.781,0.106,4.162c-0.186,3.688-0.447,7.369-0.732,11.045
		c-0.063,0.82,0.31,1.08,1.017,1.162c0.688,0.078,1.392,0.117,2.057,0.291c1.449,0.367,2.156,1.484,2.76,2.742
		c0.256,0.531,0.734,1.24,1.206,1.322c1.132,0.197,2.325,0.063,3.585,0.063c-0.926-3.721-1.837-7.344-2.765-11.07
		c-1.024,0.07-1.27-0.742-1.202-1.688c0.089-1.385,0.28-2.758,0.41-4.131c0.042-0.426,0.146-0.896,0.033-1.285
		C60.32,54.129,61.443,52.408,62.077,50.385z"/>
	<g display="inline">
		<path d="M161.143,8.176h11.039v30.354h0.38c2.284-2.431,4.567-4.676,6.725-6.723l26.137-23.631h13.703l-30.958,26.708
			l33.369,36.233h-13.068l-28.167-30.912l-8.12,6.909v24.003h-11.039V8.176z"/>
		<path d="M300.837,38.989c0,21.671-17.89,33.157-39.712,33.157c-22.584,0-38.444-12.888-38.444-31.941
			c0-19.984,16.875-33.059,39.712-33.059C285.739,7.146,300.837,20.317,300.837,38.989z M234.48,40.019
			c0,13.447,9.896,25.494,27.278,25.494c17.509,0,27.405-11.861,27.405-26.151c0-12.505-8.881-25.581-27.278-25.581
			C243.616,13.78,234.48,26.2,234.48,40.019z"/>
		<path d="M315.178,9.02c6.725-0.756,14.718-1.315,23.472-1.315c15.86,0,27.152,2.712,34.638,7.853
			c7.612,5.136,12.053,12.417,12.053,22.599c0,10.274-4.314,18.673-12.307,24.465c-7.993,5.88-21.188,9.055-37.81,9.055
			c-7.866,0-14.464-0.272-20.046-0.743V9.02z M326.216,64.679c2.791,0.372,6.851,0.46,11.165,0.46
			c23.599,0,36.414-9.713,36.414-26.707c0.127-14.849-11.292-24.277-34.637-24.277c-5.709,0-10.023,0.373-12.941,0.833V64.679z"/>
		<path d="M410.719,8.176v62.941H399.68V8.176H410.719z"/>
		<path d="M443.834,51.319l-8.881,19.798h-11.419l29.055-62.941h13.322l29.182,62.941h-11.8l-9.135-19.798H443.834z M471.875,44.968
			L463.5,26.856c-1.903-4.116-3.172-7.852-4.441-11.49h-0.253c-1.269,3.738-2.665,7.56-4.314,11.392l-8.374,18.21H471.875z"/>
		<path d="M507.657,8.176h11.039v30.354h0.38c2.284-2.431,4.567-4.676,6.725-6.723l26.137-23.631h13.703l-30.958,26.708
			l33.369,36.233h-13.068l-28.167-30.912l-8.12,6.909v24.003h-11.039V8.176z"/>
	</g>
	<g display="inline">
		<path fill="#575756" d="M246.471,99.453c-0.415-5.621-0.913-12.379-0.83-17.402h-0.249c-1.908,4.725-4.23,9.748-7.05,15.309
			l-9.871,19.555h-5.475l-9.042-19.195c-2.654-5.682-4.894-10.885-6.47-15.668h-0.166c-0.166,5.023-0.581,11.781-1.078,17.82
			l-1.493,17.281h-6.884l3.898-40.305h9.207l9.539,19.494c2.322,4.965,4.23,9.389,5.64,13.576h0.249
			c1.41-4.066,3.401-8.492,5.889-13.576l9.954-19.494h9.207l3.484,40.305h-7.051L246.471,99.453z"/>
		<path fill="#575756" d="M294.995,98.256h-21.732v14.531h24.22v4.365h-31.437V76.848h30.192v4.365h-22.976v12.738h21.732V98.256z"
			/>
		<path fill="#575756" d="M314.073,76.848v23.861c0,9.029,5.557,12.855,13.022,12.855c8.295,0,13.604-3.947,13.604-12.855V76.848
			h7.299v23.502c0,12.379-9.041,17.461-21.151,17.461c-11.446,0-20.073-4.725-20.073-17.223v-23.74H314.073z"/>
		<path fill="#575756" d="M360.523,77.387c3.152-0.479,8.129-0.838,13.189-0.838c7.216,0,11.861,0.896,15.345,2.93
			c2.903,1.555,4.645,3.947,4.645,7.117c0,3.887-3.566,7.295-9.456,8.85v0.119c5.309,0.957,11.529,4.127,11.529,10.107
			c0,3.469-1.908,6.1-4.728,8.072c-3.898,2.572-10.202,3.768-19.326,3.768c-4.977,0-8.792-0.24-11.198-0.479V77.387z M367.74,93.891
			h6.553c7.631,0,12.11-2.869,12.11-6.758c0-4.723-4.977-6.576-12.276-6.576c-3.318,0-5.226,0.178-6.387,0.357V93.891z
			 M367.74,113.207c1.41,0.178,3.483,0.238,6.055,0.238c7.465,0,14.35-1.973,14.35-7.834c0-5.502-6.553-7.773-14.433-7.773h-5.972
			V113.207z"/>
		<path fill="#575756" d="M434.43,98.256h-21.732v14.531h24.22v4.365h-31.437V76.848h30.193v4.365h-22.976v12.738h21.732V98.256z"/>
		<path fill="#575756" d="M446.292,76.848h7.216v35.939h23.889v4.365h-31.105V76.848z"/>
		<path fill="#575756" d="M532.557,99.453c-0.415-5.621-0.913-12.379-0.83-17.402h-0.249c-1.908,4.725-4.23,9.748-7.05,15.309
			l-9.871,19.555h-5.475l-9.042-19.195c-2.654-5.682-4.894-10.885-6.47-15.668h-0.166c-0.166,5.023-0.581,11.781-1.078,17.82
			l-1.493,17.281h-6.884l3.898-40.305h9.207l9.539,19.494c2.322,4.965,4.23,9.389,5.64,13.576h0.249
			c1.41-4.066,3.401-8.492,5.889-13.576l9.954-19.494h9.207l3.484,40.305h-7.051L532.557,99.453z"/>
		<path fill="#575756" d="M560.345,104.475l-5.806,12.678h-7.465l18.995-40.305h8.709l19.078,40.305h-7.714l-5.972-12.678H560.345z
			 M578.676,100.408l-5.475-11.6c-1.244-2.631-2.073-5.023-2.903-7.355h-0.166c-0.83,2.391-1.742,4.844-2.82,7.295l-5.474,11.66
			H578.676z"/>
		<path fill="#575756" d="M602.068,76.848h7.216v19.436h0.249c1.493-1.555,2.986-2.99,4.396-4.307l17.087-15.129h8.958
			l-20.239,17.104l21.815,23.201h-8.543l-18.414-19.793l-5.309,4.426v15.367h-7.216V76.848z"/>
		<path fill="#575756" d="M675.975,98.256h-21.732v14.531h24.221v4.365h-31.437V76.848h30.192v4.365h-22.977v12.738h21.732V98.256z"
			/>
		<path fill="#575756" d="M687.836,77.387c3.65-0.539,8.876-0.838,13.853-0.838c7.714,0,12.69,1.018,16.175,3.289
			c2.82,1.795,4.396,4.545,4.396,7.654c0,5.322-4.645,8.85-10.534,10.285v0.18c4.313,1.076,6.885,3.947,8.212,8.133
			c1.825,5.621,3.152,9.508,4.313,11.063h-7.466c-0.912-1.135-2.156-4.604-3.732-9.627c-1.659-5.563-4.645-7.654-11.197-7.834
			h-6.802v17.461h-7.217V77.387z M695.053,95.744h7.382c7.714,0,12.608-3.049,12.608-7.654c0-5.201-5.226-7.475-12.857-7.533
			c-3.483,0-5.972,0.238-7.133,0.477V95.744z"/>
		<path fill="#575756" d="M731.467,110.814c3.235,1.436,7.963,2.631,12.939,2.631c7.383,0,11.695-2.811,11.695-6.877
			c0-3.768-2.985-5.92-10.534-8.014c-9.124-2.332-14.765-5.74-14.765-11.422c0-6.277,7.217-10.943,18.083-10.943
			c5.724,0,9.87,0.957,12.359,1.975l-1.991,4.246c-1.825-0.719-5.558-1.914-10.617-1.914c-7.631,0-10.534,3.289-10.534,6.039
			c0,3.768,3.4,5.621,11.115,7.773c9.456,2.633,14.267,5.922,14.267,11.842c0,6.219-6.387,11.6-19.575,11.6
			c-5.392,0-11.281-1.135-14.268-2.57L731.467,110.814z"/>
	</g>
	
		<path display="inline" fill-rule="evenodd" clip-rule="evenodd" fill="none" stroke="#010202" stroke-width="2" stroke-miterlimit="10" d="
		M38.305,15.131"/>
	<path display="inline" fill="#FFFFFF" stroke="#000000" stroke-miterlimit="10" d="M47.109,13.472"/>
</g>
<g id="Laag_2">
	<g>
		<path d="M161.143,8.176h11.039v30.354h0.38c2.284-2.431,4.567-4.676,6.725-6.723l26.137-23.631h13.703l-30.958,26.708
			l33.369,36.233h-13.068l-28.167-30.912l-8.12,6.909v24.003h-11.039V8.176z"/>
		<path d="M300.837,38.989c0,21.671-17.89,33.157-39.712,33.157c-22.584,0-38.444-12.888-38.444-31.941
			c0-19.984,16.875-33.059,39.712-33.059C285.739,7.146,300.837,20.317,300.837,38.989z M234.48,40.019
			c0,13.447,9.896,25.494,27.278,25.494c17.509,0,27.405-11.861,27.405-26.151c0-12.505-8.881-25.581-27.278-25.581
			C243.616,13.78,234.48,26.2,234.48,40.019z"/>
		<path d="M315.178,9.02c6.725-0.756,14.718-1.315,23.472-1.315c15.86,0,27.152,2.712,34.638,7.853
			c7.612,5.136,12.053,12.417,12.053,22.599c0,10.274-4.314,18.673-12.307,24.465c-7.993,5.88-21.188,9.055-37.81,9.055
			c-7.866,0-14.464-0.272-20.046-0.743V9.02z M326.216,64.679c2.791,0.372,6.851,0.46,11.165,0.46
			c23.599,0,36.414-9.713,36.414-26.707c0.127-14.849-11.292-24.277-34.637-24.277c-5.709,0-10.023,0.373-12.941,0.833V64.679z"/>
		<path d="M410.719,8.176v62.941H399.68V8.176H410.719z"/>
		<path d="M443.834,51.319l-8.881,19.798h-11.419l29.055-62.941h13.322l29.182,62.941h-11.8l-9.135-19.798H443.834z M471.875,44.968
			L463.5,26.856c-1.903-4.116-3.172-7.852-4.441-11.49h-0.253c-1.269,3.738-2.665,7.56-4.314,11.392l-8.374,18.21H471.875z"/>
		<path d="M507.657,8.176h11.039v30.354h0.38c2.284-2.431,4.567-4.676,6.725-6.723l26.137-23.631h13.703l-30.958,26.708
			l33.369,36.233h-13.068l-28.167-30.912l-8.12,6.909v24.003h-11.039V8.176z"/>
	</g>
	<g>
		<path fill="#575756" d="M246.471,99.453c-0.415-5.621-0.913-12.379-0.83-17.402h-0.249c-1.908,4.725-4.23,9.748-7.05,15.309
			l-9.871,19.555h-5.475l-9.042-19.195c-2.654-5.682-4.894-10.885-6.47-15.668h-0.166c-0.166,5.023-0.581,11.781-1.078,17.82
			l-1.493,17.281h-6.884l3.898-40.305h9.207l9.539,19.494c2.322,4.965,4.23,9.389,5.64,13.576h0.249
			c1.41-4.066,3.401-8.492,5.889-13.576l9.954-19.494h9.207l3.484,40.305h-7.051L246.471,99.453z"/>
		<path fill="#575756" d="M294.995,98.256h-21.732v14.531h24.22v4.365h-31.437V76.848h30.192v4.365h-22.976v12.738h21.732V98.256z"
			/>
		<path fill="#575756" d="M314.073,76.848v23.861c0,9.029,5.557,12.855,13.022,12.855c8.295,0,13.604-3.947,13.604-12.855V76.848
			h7.299v23.502c0,12.379-9.041,17.461-21.151,17.461c-11.446,0-20.073-4.725-20.073-17.223v-23.74H314.073z"/>
		<path fill="#575756" d="M360.523,77.387c3.152-0.479,8.129-0.838,13.189-0.838c7.216,0,11.861,0.896,15.345,2.93
			c2.903,1.555,4.645,3.947,4.645,7.117c0,3.887-3.566,7.295-9.456,8.85v0.119c5.309,0.957,11.529,4.127,11.529,10.107
			c0,3.469-1.908,6.1-4.728,8.072c-3.898,2.572-10.202,3.768-19.326,3.768c-4.977,0-8.792-0.24-11.198-0.479V77.387z M367.74,93.891
			h6.553c7.631,0,12.11-2.869,12.11-6.758c0-4.723-4.977-6.576-12.276-6.576c-3.318,0-5.226,0.178-6.387,0.357V93.891z
			 M367.74,113.207c1.41,0.178,3.483,0.238,6.055,0.238c7.465,0,14.35-1.973,14.35-7.834c0-5.502-6.553-7.773-14.433-7.773h-5.972
			V113.207z"/>
		<path fill="#575756" d="M434.43,98.256h-21.732v14.531h24.22v4.365h-31.437V76.848h30.193v4.365h-22.976v12.738h21.732V98.256z"/>
		<path fill="#575756" d="M446.292,76.848h7.216v35.939h23.889v4.365h-31.105V76.848z"/>
		<path fill="#575756" d="M532.557,99.453c-0.415-5.621-0.913-12.379-0.83-17.402h-0.249c-1.908,4.725-4.23,9.748-7.05,15.309
			l-9.871,19.555h-5.475l-9.042-19.195c-2.654-5.682-4.894-10.885-6.47-15.668h-0.166c-0.166,5.023-0.581,11.781-1.078,17.82
			l-1.493,17.281h-6.884l3.898-40.305h9.207l9.539,19.494c2.322,4.965,4.23,9.389,5.64,13.576h0.249
			c1.41-4.066,3.401-8.492,5.889-13.576l9.954-19.494h9.207l3.484,40.305h-7.051L532.557,99.453z"/>
		<path fill="#575756" d="M560.345,104.475l-5.806,12.678h-7.465l18.995-40.305h8.709l19.078,40.305h-7.714l-5.972-12.678H560.345z
			 M578.676,100.408l-5.475-11.6c-1.244-2.631-2.073-5.023-2.903-7.355h-0.166c-0.83,2.391-1.742,4.844-2.82,7.295l-5.474,11.66
			H578.676z"/>
		<path fill="#575756" d="M602.068,76.848h7.216v19.436h0.249c1.493-1.555,2.986-2.99,4.396-4.307l17.087-15.129h8.958
			l-20.239,17.104l21.815,23.201h-8.543l-18.414-19.793l-5.309,4.426v15.367h-7.216V76.848z"/>
		<path fill="#575756" d="M675.975,98.256h-21.732v14.531h24.221v4.365h-31.437V76.848h30.192v4.365h-22.977v12.738h21.732V98.256z"
			/>
		<path fill="#575756" d="M687.836,77.387c3.65-0.539,8.876-0.838,13.853-0.838c7.714,0,12.69,1.018,16.175,3.289
			c2.82,1.795,4.396,4.545,4.396,7.654c0,5.322-4.645,8.85-10.534,10.285v0.18c4.313,1.076,6.885,3.947,8.212,8.133
			c1.825,5.621,3.152,9.508,4.313,11.063h-7.466c-0.912-1.135-2.156-4.604-3.732-9.627c-1.659-5.563-4.645-7.654-11.197-7.834
			h-6.802v17.461h-7.217V77.387z M695.053,95.744h7.382c7.714,0,12.608-3.049,12.608-7.654c0-5.201-5.226-7.475-12.857-7.533
			c-3.483,0-5.972,0.238-7.133,0.477V95.744z"/>
		<path fill="#575756" d="M731.467,110.814c3.235,1.436,7.963,2.631,12.939,2.631c7.383,0,11.695-2.811,11.695-6.877
			c0-3.768-2.985-5.92-10.534-8.014c-9.124-2.332-14.765-5.74-14.765-11.422c0-6.277,7.217-10.943,18.083-10.943
			c5.724,0,9.87,0.957,12.359,1.975l-1.991,4.246c-1.825-0.719-5.558-1.914-10.617-1.914c-7.631,0-10.534,3.289-10.534,6.039
			c0,3.768,3.4,5.621,11.115,7.773c9.456,2.633,14.267,5.922,14.267,11.842c0,6.219-6.387,11.6-19.575,11.6
			c-5.392,0-11.281-1.135-14.268-2.57L731.467,110.814z"/>
	</g>
</g>
<g id="Laag_3">
	
		<path id="beer1_2_" fill-rule="evenodd" clip-rule="evenodd" fill="none" stroke="#010202" stroke-width="3" stroke-miterlimit="10" d="
		M12.689,80.215 M12.329,80.3 M11.556,80.353 M9.988,80.468 M9.009,80.564 M8.416,80.634 M7.5,81.427 M8.099,81.854 M9.012,81.938
		 M12.831,82.026 M13.204,82.036 M13.491,82.043 M13.653,82.047 M14.027,82.057c-0.069-0.002-0.139-0.004-0.208-0.006
		 M30.965,82.373c-5.646-0.004-11.292-0.17-16.938-0.316 M31.155,82.373c-0.063,0-0.127,0-0.19,0 M43.173,82.365 M44.108,82.364
		 M45.098,82.363 M45.758,82.361 M46.17,82.361 M46.473,82.361 M46.666,82.361 M46.803,82.36 M47.064,82.36
		c-0.042,0-0.083,0-0.124,0 M66.985,82.32c-0.055,0-0.11,0-0.165,0c-3.429,0.01-6.858,0.017-10.287,0.024
		c-3.156,0.006-6.313,0.012-9.47,0.016 M67.7,82.318 M68.14,82.318 M68.8,82.316 M69.075,82.315 M69.459,82.314 M69.955,82.313
		 M87.993,82.261c-6.013,0.019-12.026,0.036-18.039,0.052 M87.993,82.261 M89.752,82.256 M90.743,82.252 M92.557,82.246
		 M94.152,82.242 M96.131,82.235 M97.562,82.23 M98.882,82.227 M100.092,82.223 M101.576,82.218 M102.786,82.214 M104.16,82.21
		 M105.92,82.205 M106.359,82.204 M106.69,82.203 M106.965,82.202 M107.35,82.2 M107.625,82.199 M108.038,82.198
		c-0.037,0-0.114,0.001-0.193,0.001 M125.801,82.057c-5.921,0.077-11.842,0.123-17.763,0.142 M126.103,82.053 M126.515,82.047
		 M128.499,82.021 M130.063,81.992 M130.887,81.973 M133.229,81.906 M135.081,81.844 M125.854,80.277 M125.518,80.266
		 M124.11,79.483c0.046,0.075,1.179,2.374,1.249,2.444 M14.792,82.077c-0.878-1.459-3.792-5.977-4.617-7.465
		c-0.769-1.385-0.669-2.708,0.323-4.034c0.471-0.629,0.602-1.506,0.925-2.254c0.605-1.402,1.209-2.806,1.868-4.183
		c1.485-3.104,3.178-6.123,4.446-9.311c0.823-2.069,0.871-4.433,1.57-6.564c1.762-5.374,3.162-10.902,6.668-15.561
		c4.71-6.26,10.293-11.445,17.461-14.82c2.825-1.33,5.866-1.377,8.87-1.674c3.973-0.394,7.958-0.676,11.918-1.172
		c2.977-0.371,5.47-2.018,8.051-3.426c2.564-1.399,5.25-2.572,7.842-3.922c3.037-1.58,6.088-0.623,9.054,0.024
		c2.282,0.499,4.406,1.679,6.663,2.345c2.47,0.729,5.016,1.201,7.522,1.81c4.001,0.971,8.006,1.928,11.99,2.965
		c1.151,0.3,2.059,0.189,3.063-0.507c2.401-1.668,4.485-1.516,6.244,0.381c0.458,0.494,1.049,1.266,0.948,1.791
		c-0.235,1.233,0.557,1.704,1.205,2.385c2.078,2.185,4.176,4.354,6.153,6.625c0.571,0.656,1.035,1.632,1.066,2.478
		c0.059,1.583,0.806,2.713,1.751,3.829c1.382,1.631,2.729,3.291,4.114,4.918c0.825,0.969,0.793,2.014,0.015,2.861
		c-1.731,1.883-3.515,3.732-5.434,5.42c-0.521,0.457-1.631,0.479-2.417,0.358c-2.073-0.315-4.103-1.062-6.222-0.292
		c-0.124,0.045-0.294,0.03-0.376,0.11c-1.896,1.832-3.86,0.62-5.781,0.101c-1.39-0.377-2.686-1.326-4.222-0.475
		c-0.195,0.107-0.55,0.066-0.771-0.033c-1.809-0.818-3.695-0.971-5.585-0.486c-1.747,0.449-3.655,0.442-5.169,1.6
		c-0.315,0.242-0.683,0.7-0.669,1.045c0.192,4.8,0.849,9.435,3.796,13.531c1.598,2.219,2.698,4.789,4.066,7.177
		c0.978,1.709,1.959,3.423,3.063,5.051c1.07,1.578,2.818,2.241,4.572,2.657c2.452,0.583,4.105,2.021,5.352,4.123 M108.505,82.197
		c-6.274-4.056-14.915-11.08-20.083-16.179 M90.137,80.099 M88.486,80.086 M87.717,80.078 M87.277,80.073 M86.887,80.069
		 M86.457,79.975 M86.252,79.881 M86.073,79.777 M85.38,79.088c0.06,0.107,0.142,0.216,0.241,0.319 M88.422,66.019
		c-1.531-1.511-3.061-3.034-4.614-4.554c-1.161,2.617-2.241,5.039-3.311,7.465c-0.564,1.279-1.214,2.533-1.639,3.857
		c-0.542,1.695,0.006,2.585,1.778,2.924c2.133,0.406,5.619,4.396,6.683,6.3 M29.417,80.166 M29.072,80.104 M28.922,80.046
		 M28.703,79.933 M47.627,82.176c-1.518-5.995-4.455-13.203-8.543-17.732c-0.577,0.472-1.083,0.872-1.573,1.291
		c-0.833,0.712-1.571,1.578-2.499,2.13c-3.763,2.237-7.59,4.367-11.369,6.577c-0.392,0.229-0.948,0.853-0.862,1.077
		c0.184,0.479,0.68,1.047,1.154,1.169c1.745,0.446,3.094,1.369,4.199,2.763c0.098,0.124,2.638,2.922,2.638,2.922 M47.082,80.197
		 M30.084,80.171 M29.755,80.169 M29.417,80.166 M66.174,80.218 M64.915,78.794c0.015,0.03,1.602,3.497,1.617,3.528 M70.298,82.097
		c-0.937-3.747-2.363-9.219-3.301-12.973c-1.031,0.069-1.276-0.747-1.211-1.701c0.094-1.388,0.284-2.77,0.418-4.154
		c0.042-0.433,0.147-0.901,0.031-1.298c-0.621-2.127,0.505-3.865,1.148-5.908c-2.465,0.758-4.85,1.465-7.207,2.257
		c-0.249,0.083-0.46,0.671-0.462,1.025c-0.007,1.398,0.177,2.802,0.106,4.194c-0.189,3.709-0.453,7.414-0.737,11.117
		c-0.064,0.832,0.31,1.087,1.02,1.168c0.694,0.078,1.402,0.123,2.075,0.294c1.423,0.361,2.134,1.444,2.736,2.676 M66.528,80.268
		 M66.174,80.218"/>
</g>
</svg>
