<?xml version="1.0" encoding="utf-8"?>
<!-- Generator: Adobe Illustrator 16.0.0, SVG Export Plug-In . SVG Version: 6.00 Build 0)  -->
<!DOCTYPE svg PUBLIC "-//W3C//DTD SVG 1.1//EN" "http://www.w3.org/Graphics/SVG/1.1/DTD/svg11.dtd">
<svg version="1.1" id="Laag_1" xmlns="http://www.w3.org/2000/svg" xmlns:xlink="http://www.w3.org/1999/xlink" x="0px" y="0px"
	 width="602px" height="422px" viewBox="30.5 -327 602 422" enable-background="new 30.5 -327 602 422" xml:space="preserve">
<g id="Laag_1_1_">
	<path id="beer1" fill="none" stroke="#010202" stroke-width="5" stroke-miterlimit="10" d="M534.48-85.771
		c-1.269,0.307-2.527,0.835-3.808,0.883c-11.827,0.429-23.655,0.936-35.489,1.107c-20.881,0.302-41.763,0.478-62.646,0.542
		c-77.317,0.235-154.634,0.518-231.951,0.525c-22.336,0.002-44.675-0.85-67.011-1.318c-0.93-0.02-1.938,0.076-2.763-0.251
		c-0.869-0.344-1.562-1.131-2.333-1.723c0.809-0.647,1.557-1.749,2.435-1.864c3.948-0.511,7.927-0.84,11.904-1.043
		c3.129-0.161,3.761-1.409,2.195-4.008c-2.658-4.415-5.421-8.773-7.918-13.278c-2.327-4.191-2.026-8.195,0.977-12.208
		c1.426-1.905,1.82-4.56,2.799-6.824c1.833-4.24,3.659-8.489,5.653-12.657c4.494-9.392,9.619-18.529,13.455-28.176
		c2.49-6.262,2.634-13.414,4.75-19.867c5.332-16.262,9.569-32.992,20.18-47.091c14.253-18.942,31.15-34.637,52.842-44.851
		c8.551-4.026,17.752-4.167,26.843-5.066c12.022-1.188,24.086-2.043,36.069-3.542c9.007-1.127,16.553-6.106,24.366-10.371
		c7.758-4.234,15.888-7.785,23.731-11.869c9.189-4.782,18.423-1.886,27.398,0.075c6.908,1.51,13.335,5.081,20.165,7.096
		c7.476,2.205,15.179,3.635,22.766,5.477c12.108,2.938,24.229,5.834,36.285,8.973c3.485,0.907,6.231,0.573,9.271-1.536
		c7.268-5.046,13.573-4.584,18.896,1.155c1.384,1.493,3.173,3.83,2.87,5.418c-0.714,3.734,1.686,5.16,3.646,7.22
		c6.29,6.609,12.639,13.173,18.623,20.05c1.729,1.985,3.135,4.936,3.229,7.497c0.175,4.788,2.438,8.21,5.299,11.586
		c4.182,4.935,8.257,9.96,12.45,14.884c2.499,2.932,2.398,6.095,0.044,8.658c-5.238,5.7-10.636,11.299-16.443,16.404
		c-1.574,1.383-4.936,1.447-7.314,1.084c-6.272-0.955-12.416-3.213-18.829-0.884c-0.376,0.136-0.89,0.091-1.14,0.333
		c-5.737,5.545-11.681,1.878-17.493,0.305c-4.207-1.139-8.127-4.011-12.778-1.436c-0.59,0.326-1.661,0.202-2.333-0.102
		c-5.476-2.471-11.186-2.936-16.9-1.468c-5.288,1.357-11.062,1.336-15.644,4.84c-0.956,0.732-2.067,2.118-2.025,3.16
		c0.582,14.528,2.566,28.554,11.487,40.95c4.833,6.717,8.167,14.495,12.306,21.723c2.961,5.171,5.929,10.358,9.271,15.284
		c3.239,4.776,8.532,6.783,13.838,8.043c7.423,1.762,12.425,6.117,16.198,12.476c0.729,1.229,2.776,2.311,4.256,2.367
		c14.354,0.531,28.717,0.799,43.072,1.231c1.745,0.053,3.477,0.64,5.212,0.977C534.455-86.511,534.468-86.139,534.48-85.771z
		 M359.589-146.042c-3.52,7.932-6.792,15.272-10.033,22.625c-1.709,3.877-3.678,7.678-4.965,11.691
		c-1.645,5.139,0.019,7.834,5.39,8.859c6.463,1.232,11.153,4.467,14.375,10.236c0.801,1.436,2.996,2.956,4.567,2.974
		c17.91,0.208,35.824,0.132,55.064,0.132C399.339-105.457,380.206-125.891,359.589-146.042z M248.285-89.268
		c-4.6-18.168-11.846-34.019-24.238-47.747c-1.748,1.43-3.281,2.644-4.766,3.914c-2.526,2.156-4.763,4.781-7.574,6.453
		c-11.404,6.782-23.003,13.235-34.457,19.934c-1.187,0.693-2.874,2.583-2.613,3.266c0.556,1.45,2.061,3.174,3.498,3.542
		c5.289,1.354,9.377,4.148,12.726,8.374c0.866,1.093,2.563,2.159,3.887,2.17C212.332-89.221,229.918-89.268,248.285-89.268z
		 M309.813-162.415c-7.472,2.298-14.699,4.439-21.841,6.84c-0.755,0.253-1.395,2.032-1.4,3.108
		c-0.022,4.237,0.538,8.491,0.322,12.71c-0.573,11.241-1.372,22.471-2.232,33.695c-0.193,2.521,0.938,3.295,3.092,3.54
		c2.104,0.237,4.248,0.373,6.288,0.891c4.419,1.123,6.573,4.543,8.428,8.389c0.781,1.616,2.24,3.79,3.68,4.035
		c3.459,0.59,7.088,0.19,10.945,0.19c-2.838-11.358-5.605-22.436-8.449-33.813c-3.126,0.21-3.866-2.263-3.672-5.155
		c0.284-4.207,0.862-8.394,1.269-12.591c0.126-1.31,0.443-2.731,0.093-3.933C304.451-150.955,307.865-156.223,309.813-162.415z"/>
</g>
<g id="lora_kodiak">
	<g>
		<path d="M65.48,9.608V5.7c3.617-0.17,5.997-0.85,7.303-2.119c1.303-1.191,2.068-2.891,2.282-5.096
			c0.05-2.129,0.242-4.592,0.242-7.393v-51.068c0-1.611,0.016-3.141,0.054-4.584c0.032-1.447,0.232-2.803,0.266-3.992
			c-1.606,0.086-3.383,0.168-4.99,0.254c-1.772,0.084-3.551,0.17-5.157,0.252v-5.262h31.731v3.908
			c-3.415,0.086-5.787,0.766-7.271,2.037c-1.325,1.273-2.096,2.973-2.148,5.096c-0.214,2.127-0.24,4.592-0.24,7.475v19.377h10.63
			l17.668-23.283c1.105-1.611,2.649-3.313,4.454-5.186c1.811-1.947,3.637-3.482,5.479-4.754c-1.339,0.082-2.855,0.086-4.214,0.086
			c-1.522,0-2.871,0.082-4.378,0.164v-4.92h30.395v3.908c-3.918,0.254-7.517,0.844-10.634,1.695
			c-3.113,0.852-6.011,2.381-8.858,4.584c-2.849,2.131-5.763,5.361-9.076,9.771L105.22-34.91c2.644,1.357,4.939,2.889,6.546,4.674
			c1.776,1.781,3.549,3.568,5.155,5.354l15.846,17.668c3.615,3.914,6.504,6.803,8.834,8.67c2.324,1.869,4.404,3.055,6.227,3.486
			c1.826,0.506,3.677,0.758,5.719,0.758v3.908h-17.182c-1.003,0-2.286-0.59-3.843-1.695c-1.557-1.104-3.155-2.549-4.963-4.332
			c-1.811-1.783-3.633-3.652-5.477-5.607L105-21.226c-1.641-1.957-3.451-3.826-5.261-5.609c-1.807-1.783-3.597-3.063-5.206-3.912
			l-6.981,0.086v26.168c0,2.125-0.012,3.99-0.03,5.521C87.34,2.557,87.3,3.833,87.066,4.852c1.772-0.084,3.383-0.168,5.158-0.252
			c1.604-0.086,3.381-0.168,4.987-0.254v5.262H65.48z"/>
		<path d="M207.791,11.479c-9.048,0-16.635-1.273-23.093-3.818c-6.469-2.471-11.666-5.867-15.6-10.111
			c-4.106-4.168-6.992-8.844-8.836-14.02c-2.008-5.102-2.846-10.279-2.846-15.381c0-4.932,1.019-10.021,2.897-15.119
			c2.042-5.02,4.963-9.693,9.102-14.018c4.134-4.25,9.308-7.65,15.521-10.283c6.044-2.631,13.306-3.908,21.612-3.908
			c8.776,0,16.125,1.277,22.558,3.908c6.262,2.633,11.459,6.035,15.6,10.363c4.134,4.332,7.063,9.004,9.127,14.021
			c2.058,5.092,3.089,10.104,3.089,15.035c0,4.926-1.022,9.859-2.896,14.957c-2.044,5.096-5.136,9.848-9.271,14.102
			c-3.966,4.33-9.136,7.734-15.331,10.363C223.393,10.202,216.13,11.479,207.791,11.479z M208.055,6.637
			c5.76,0,10.918-1.023,15.138-3.145c4.388-2.119,8.013-4.924,10.876-8.41c2.865-3.486,4.974-7.395,6.496-11.723
			c1.525-4.332,2.122-8.588,2.122-12.92c0-4.924-0.789-9.768-2.362-14.607c-1.575-4.764-3.918-9.178-7.032-13.09
			c-3.117-3.988-6.996-7.135-11.465-9.594c-4.638-2.383-9.839-3.572-15.602-3.572c-5.927,0-11.09,1.023-15.492,3.148
			c-4.24,2.201-7.873,5.006-10.738,8.494c-2.863,3.484-5.137,7.393-6.496,11.723c-1.522,4.33-2.286,8.666-2.286,13.084
			c0,4.334,0.764,8.916,2.286,13.596c1.359,4.756,3.659,9.174,6.572,13.254c3.081,4.08,6.95,7.471,11.604,9.941
			C196.166,5.362,201.625,6.637,208.055,6.637z"/>
		<path d="M269.649,5.7c3.614-0.17,5.991-0.85,7.301-2.119c1.303-1.191,2.065-2.891,2.284-5.096
			c0.048-2.129,0.073-4.592,0.073-7.393v-51.068c0-1.611,0.185-3.141,0.221-4.584c0.031-1.447,0.233-2.803,0.266-3.992
			c-1.606,0.086-3.383,0.168-4.991,0.254c-1.771,0.084-3.549,0.17-5.152,0.252v-5.262l33.29-0.088c8.54,0,16.326,0.848,23.357,2.467
			c7.032,1.693,13.224,4.242,18.396,7.645c5.007,3.479,9.094,7.813,11.757,13.002c2.827,5.266,4.16,11.465,4.16,18.521
			c0,5.514-1.071,10.699-3.384,15.633c-2.14,5.008-5.521,9.422-10.148,13.248c-4.454,3.822-10.137,6.803-16.887,9.092
			c-6.75,2.213-14.545,3.396-23.388,3.396h-37.155V5.7L269.649,5.7z M291.722-4.406c0,2.125-0.014,3.988-0.197,5.439
			c-0.017,1.525-0.057,2.799-0.29,3.818c2.58,0.086,4.916,0.166,7.007,0.17c2.092,0.004,3.902,0.084,5.425,0.084
			c1.357,0,2.354,0,2.652,0c6.197,0,11.681-0.938,16.621-2.885c4.939-1.871,9.296-4.504,12.729-7.82
			c3.599-3.395,6.247-7.307,8.273-11.889c1.859-4.508,2.873-9.434,2.873-14.703c0-7.479-1.58-14.016-4.916-19.457
			c-3.167-5.52-8.114-9.77-14.843-12.826c-6.733-2.979-15.294-4.506-25.677-4.506c-3.415,0-5.785,0.592-7.271,1.705
			c-1.325,1.189-2.097,2.885-2.146,5.008c-0.216,2.127-0.24,4.592-0.24,7.475V-4.406z"/>
		<path d="M405.289-69.4c-3.358,0.086-5.785,0.766-7.277,2.037c-1.267,1.273-2.091,2.973-2.145,5.096
			c-0.159,2.127-0.298,4.592-0.298,7.475v50.299c0,2.125-0.009,3.99-0.024,5.521c-0.127,1.529-0.171,2.805-0.349,3.824
			c1.723-0.084,3.325-0.168,5.049-0.252c1.718-0.086,3.436-0.168,5.044-0.254v5.262h-31.733V5.7c3.614-0.17,6.05-0.85,7.302-2.119
			c1.363-1.191,2.065-2.891,2.231-5.096c0.16-2.129,0.296-4.592,0.296-7.393v-51.068c0-1.611,0.02-3.141,0.05-4.584
			c0.032-1.447,0.183-2.803,0.326-3.992c-1.724,0.086-3.438,0.168-5.052,0.254c-1.718,0.084-3.545,0.17-5.153,0.252v-5.262h31.733
			V-69.4z"/>
		<path d="M412.329,9.608V5.7c2.791,0,4.897-0.676,6.438-1.947c1.541-1.197,2.769-2.977,3.678-5.186
			c1.021-2.209,2.212-4.76,3.574-7.729l29.104-66.359h3.326l31.523,67.373c0.826,1.617,1.687,3.742,2.579,6.373
			c1.002,2.631,1.359,4.84,1.184,6.627c1.572-0.084,3.146-0.168,4.835-0.252c1.571-0.086,3.148-0.168,4.831-0.254v5.262h-32.489V5.7
			c3.615-0.084,6.018-0.762,7.086-2.037c1.073-1.271,1.559-2.723,1.343-4.5c-0.318-1.703-0.823-3.314-1.391-4.756l-4.996-11.131
			l-36.729,0.76l-4.996,12.66c-0.683,1.871-1.227,3.396-1.743,4.502c-0.521,1.104-1.177,2.297-1.858,3.654
			c2.01-0.084,3.788-0.168,5.671-0.252c1.881-0.086,3.641-0.168,5.396-0.254v5.262H412.329z M438.317-21.062h32.596l-10.045-22.6
			c-1.036-2.463-2.084-4.922-3.137-7.303c-1.06-2.383-2.104-4.844-3.144-7.305h-0.322c-0.896,2.209-1.904,4.418-2.814,6.627
			c-1.021,2.209-2.052,4.498-3.093,6.793L438.317-21.062z"/>
		<path d="M509.36,9.608V5.7c3.614-0.17,6.049-0.85,7.411-2.119c1.252-1.191,2.068-2.891,2.23-5.096
			c0.047-2.129,0.073-4.592,0.073-7.393v-51.068c0-1.611,0.125-3.141,0.275-4.584c0.034-1.447,0.177-2.803,0.209-3.992
			c-1.605,0.086-3.325,0.168-5.046,0.254c-1.716,0.084-3.326,0.17-5.154,0.252v-5.262h31.865v3.908
			c-3.492,0.086-5.936,0.766-7.28,2.037c-1.396,1.273-2.099,2.973-2.287,5.096c-0.147,2.127-0.171,4.592-0.171,7.475v19.377h10.554
			l17.652-23.283c1.292-1.611,2.834-3.313,4.548-5.186c1.906-1.947,3.637-3.482,5.58-4.754c-1.443,0.082-2.954,0.086-4.409,0.086
			c-1.334,0-2.781,0.082-4.284,0.164v-4.92h30.506v3.908c-4.033,0.254-7.63,0.844-10.747,1.695
			c-3.112,0.852-6.114,2.381-8.859,4.584c-2.745,2.131-5.764,5.361-8.979,9.771l-13.892,18.439c2.646,1.357,4.851,2.889,6.635,4.674
			c1.686,1.781,3.296,3.568,5.155,5.354l15.757,17.668c3.613,3.914,6.614,6.803,8.832,8.67c2.214,1.869,4.292,3.055,6.227,3.486
			c1.714,0.506,3.682,0.758,5.72,0.758v3.908h-17.182c-1.003,0-2.178-0.59-3.736-1.695c-1.559-1.104-3.36-2.549-5.07-4.332
			c-1.907-1.783-3.633-3.652-5.571-5.607l-16.9-19.199c-1.887-1.957-3.532-3.826-5.424-5.609c-1.726-1.783-3.448-3.063-5.198-3.912
			l-6.909,0.086v26.168c0,2.125-0.013,3.99-0.028,5.521c-0.115,1.529-0.288,2.805-0.456,3.824c1.702-0.084,3.454-0.168,5.152-0.252
			c1.609-0.086,3.308-0.168,5.07-0.254v5.262H509.36L509.36,9.608z"/>
	</g>
</g>
<g id="lora_interieurs">
	<g>
		<path d="M58.029,29.694c-2.537,0.061-4.292,0.553-5.301,1.477c-0.974,0.915-1.527,2.149-1.612,3.691
			c-0.128,1.537-0.171,3.35-0.171,5.414v36.589c0,1.554-0.021,2.872-0.049,3.999c-0.029,1.125-0.1,2.047-0.256,2.785
			c1.214-0.061,2.479-0.116,3.694-0.169c1.215-0.054,2.437-0.105,3.695-0.17v3.784H34.98v-2.83c2.593-0.123,4.363-0.615,5.307-1.519
			c0.981-0.88,1.514-2.11,1.605-3.701c0.086-1.563,0.128-3.36,0.128-5.362V36.5c0-1.146,0.033-2.253,0.135-3.308
			c0.058-1.076,0.114-2.021,0.17-2.883c-1.214,0.054-2.437,0.106-3.652,0.159c-1.253,0.063-2.479,0.117-3.694,0.169v-3.773h23.05
			V29.694z"/>
		<path d="M125.288,88.479L84.439,42.35c-0.611-0.692-1.208-1.362-1.783-2.021c-0.583-0.669-1.187-1.347-1.827-2.022h-0.091
			l0.306,36.835c0,1.433,0,2.86,0,4.297c0,1.442-0.058,2.852-0.214,4.21c1.258-0.061,2.48-0.116,3.696-0.169
			c1.214-0.054,2.479-0.105,3.694-0.17v3.784H69.476v-2.83c2.095,0,3.652-0.39,4.561-1.168c0.917-0.775,1.514-1.69,1.792-2.766
			c0.27-1.049,0.416-2.009,0.416-2.87l0.102-41.397c0-0.967,0-1.939,0-2.924c0-0.985,0-1.915,0-2.83
			c-1.1,0.054-2.23,0.106-3.396,0.159c-1.158,0.063-2.316,0.117-3.475,0.169v-3.773h12.178l38.411,43.189
			c0.882,0.984,1.756,1.969,2.608,2.94c0.859,0.968,1.726,1.935,2.615,2.913h0.085l0.128-39.407c0-1.146,0.028-2.253,0.086-3.308
			c0.063-1.076,0.119-2.021,0.219-2.883c-1.258,0.054-2.479,0.106-3.694,0.159c-1.223,0.063-2.481,0.117-3.703,0.169v-3.773h18.836
			v2.83c-2.505,0.061-4.272,0.553-5.215,1.477c-0.944,0.915-1.471,2.149-1.527,3.691c-0.058,1.537-0.086,3.35-0.086,5.414
			l-0.221,48.203L125.288,88.479L125.288,88.479z"/>
		<path d="M200.938,45.012c-0.063-3.383-0.454-6.206-1.221-8.428c-0.769-2.244-2.06-3.927-3.959-5.045
			c-1.853-1.107-4.598-1.646-8.135-1.594h-8.697l-0.091,46.919c0,1.554-0.016,2.872-0.043,3.999
			c-0.064,1.125-0.142,2.047-0.263,2.785c1.436-0.061,2.857-0.116,4.22-0.169c1.407-0.054,2.829-0.105,4.264-0.17v3.784H162.96
			v-2.83c2.594-0.123,4.348-0.634,5.257-1.549c0.916-0.914,1.442-2.171,1.563-3.742c0.093-1.588,0.135-3.342,0.135-5.291
			l0.091-43.639l-10.529,0.08c-4.307,0-7.326,1.206-9.139,3.621c-1.769,2.408-2.65,6.162-2.65,11.268h-3.787l0.611-18.148h59.69
			l0.642,18.148L200.938,45.012L200.938,45.012z"/>
		<path d="M248.436,64.814c0-2.521-0.389-4.341-1.214-5.425c-0.825-1.088-2.103-1.764-3.873-1.979
			c-1.813-0.222-4.164-0.276-7.091-0.169l-7.482,0.262v19.69c0,1.554-0.015,2.888-0.042,3.969c-0.028,1.084-0.105,1.999-0.263,2.743
			l19.577-0.256c2.99-0.061,5.583-0.467,7.788-1.231c2.159-0.789,3.871-2.151,5.085-4.096c1.266-1.945,1.877-4.628,1.877-8.01h3.476
			l-0.604,16.782h-52.858v-2.83c2.593-0.123,4.362-0.615,5.351-1.519c0.945-0.88,1.479-2.11,1.57-3.701
			c0.084-1.563,0.17-3.36,0.17-5.362V36.5c0-1.146,0.029-2.253,0.086-3.308c0.056-1.076,0.119-2.021,0.219-2.883
			c-1.265,0.054-2.48,0.106-3.701,0.159c-1.216,0.063-2.474,0.117-3.696,0.169v-3.773h49.246l0.521,15.061h-3.391
			c0-3.383-0.61-5.955-1.832-7.713c-1.214-1.75-2.885-2.918-4.959-3.533c-2.074-0.604-4.406-0.861-7-0.805l-8.832,0.17
			c-2.496,0.052-4.334,0.449-5.403,1.189c-1.09,0.756-1.788,1.851-1.993,3.32c-0.248,1.477-0.391,3.385-0.391,5.723v13.781
			l19.271,0.076l-0.741-7.398h4.527v18.079H248.436L248.436,64.814z"/>
		<path d="M276.495,87.094v-2.83c2.594-0.123,4.363-0.615,5.307-1.519c0.99-0.88,1.523-2.11,1.614-3.701
			c0.084-1.563,0.167-3.36,0.167-5.362V36.5c0-1.146,0.033-2.253,0.089-3.308c0.056-1.076,0.119-2.021,0.221-2.883
			c-1.267,0.054-2.48,0.106-3.702,0.159c-1.215,0.063-2.475,0.117-3.696,0.169v-3.773c3.814-0.063,7.718-0.123,11.617-0.186
			c3.943-0.061,7.857-0.018,11.831,0.089c6.629,0.052,11.949,0.712,16.007,1.942s7.079,2.981,8.96,5.236
			c1.934,2.27,2.871,5.021,2.871,8.236c0.101,2.219-0.404,4.506-1.479,6.83c-1.074,2.336-2.955,4.41-5.742,6.238
			c-2.74,1.84-6.728,3.225-11.915,4.139c1.372,0.809,2.565,1.84,3.611,3.096c0.994,1.266,2.159,2.721,3.475,4.38l6.964,9.218
			c1.157,1.537,2.276,2.953,3.345,4.184c1.102,1.23,2.352,2.215,3.787,2.916c1.435,0.713,3.204,1.082,5.352,1.082v2.83H322.26
			c-1.99-1.477-3.607-2.976-4.959-4.476c-1.351-1.491-2.699-3.18-4.134-5.063l-6.872-9.227c-0.888-1.198-1.913-2.584-3.005-4.178
			c-1.129-1.562-2.431-2.898-3.867-4c-1.064,0.057-2.208,0.099-3.404,0.099c-1.222,0-2.4-0.042-3.559-0.099v16.712
			c0,1.554-0.014,2.872-0.042,3.999c-0.028,1.125-0.105,2.047-0.263,2.785c0.825-0.061,1.655-0.094,2.48-0.123
			c0.823-0.024,1.611-0.061,2.437-0.123c0.824-0.061,1.656-0.093,2.48-0.093v3.784h-23.058V87.094z M298.813,56.974
			c3.752-0.105,7.079-0.64,9.877-1.554c2.843-0.914,5.089-2.371,6.699-4.379c1.649-2.013,2.475-4.65,2.475-7.928
			c0-2.162-0.349-4.071-1.088-5.723c-0.695-1.626-1.812-2.987-3.304-4.071c-1.49-1.104-3.425-1.903-5.741-2.458
			c-2.323-0.553-5.031-0.818-8.178-0.818c-2.537,0-4.292,0.425-5.306,1.286c-0.977,0.861-1.523,2.056-1.615,3.574
			c-0.128,1.509-0.172,3.308-0.172,5.372v16.54c1.102,0.053,2.162,0.105,3.134,0.158C296.563,57.027,297.648,57.027,298.813,56.974z
			"/>
		<path d="M363.842,29.694c-2.538,0.061-4.292,0.553-5.258,1.477c-1.018,0.915-1.572,2.149-1.656,3.691
			c-0.084,1.537-0.171,3.35-0.171,5.414v36.589c0,1.554-0.021,2.872-0.05,3.999c-0.028,1.125-0.098,2.047-0.256,2.785
			c1.224-0.061,2.48-0.116,3.695-0.169c1.215-0.054,2.48-0.105,3.695-0.17v3.784h-23.051v-2.83c2.593-0.123,4.362-0.615,5.352-1.519
			c0.938-0.88,1.478-2.11,1.563-3.701c0.084-1.563,0.171-3.36,0.171-5.362V36.5c0-1.146,0.028-2.253,0.092-3.308
			c0.057-1.076,0.112-2.021,0.213-2.883c-1.259,0.054-2.48,0.106-3.694,0.159c-1.214,0.063-2.481,0.117-3.695,0.169v-3.773h23.051
			V29.694L363.842,29.694z"/>
		<path d="M410.736,64.814c0-2.521-0.436-4.341-1.214-5.425c-0.87-1.088-2.147-1.764-3.917-1.979
			c-1.77-0.222-4.12-0.276-7.048-0.169l-7.481,0.262v19.69c0,1.554-0.014,2.888-0.042,3.969c-0.028,1.084-0.105,1.999-0.31,2.743
			l19.576-0.256c2.99-0.061,5.629-0.467,7.833-1.231c2.113-0.789,3.826-2.151,5.04-4.096c1.313-1.945,1.923-4.628,1.923-8.01h3.476
			l-0.604,16.782h-52.902v-2.83c2.639-0.123,4.407-0.615,5.391-1.519c0.906-0.88,1.438-2.11,1.53-3.701
			c0.084-1.563,0.218-3.36,0.218-5.362V36.5c0-1.146,0.027-2.253,0.084-3.308c0.057-1.076,0.119-2.021,0.176-2.883
			c-1.222,0.054-2.436,0.106-3.657,0.159c-1.215,0.063-2.52,0.117-3.74,0.169v-3.773h49.246l0.52,15.061h-3.39
			c0-3.383-0.61-5.955-1.832-7.713c-1.216-1.75-2.886-2.918-4.914-3.533c-2.119-0.604-4.45-0.861-6.998-0.805l-8.879,0.17
			c-2.492,0.052-4.289,0.449-5.392,1.189c-1.102,0.756-1.755,1.851-1.96,3.32c-0.293,1.477-0.392,3.385-0.392,5.723v13.781
			l19.226,0.076l-0.694-7.398h4.526v18.079H410.736L410.736,64.814z"/>
		<path d="M459.288,29.694c-2.267,0-3.902,0.401-4.92,1.211c-0.927,0.809-1.519,1.742-1.783,2.787
			c-0.176,1.062-0.26,1.998-0.26,2.808v21.679c0,3.209,0.218,6.338,0.736,9.349c0.526,3.019,1.436,5.726,2.913,8.124
			c1.399,2.403,3.553,4.33,6.396,5.778c2.843,1.421,6.514,2.147,11.097,2.147c4.963,0,8.979-0.973,12.052-2.941
			c3.067-1.941,5.363-4.632,6.872-8.078c1.421-3.435,2.246-7.403,2.303-11.87l0.262-24.188c0-1.146,0.03-2.253,0.174-3.308
			c0.063-1.076,0.12-2.021,0.176-2.883c-1.214,0.054-2.422,0.106-3.607,0.159c-1.193,0.063-2.481,0.117-3.698,0.169v-3.773h19.05
			v2.83c-2.548,0.061-4.316,0.553-5.307,1.477c-0.989,0.915-1.521,2.149-1.607,3.691c-0.091,1.537-0.161,3.35-0.218,5.414
			l-0.264,19.976c0,3.721-0.403,7.278-1.394,10.663c-0.981,3.383-2.479,6.398-4.653,9.043c-2.177,2.646-5.02,4.726-8.527,6.235
			c-3.51,1.517-7.785,2.286-12.916,2.286c-5.511,0-10.017-0.594-13.792-1.814c-3.679-1.194-6.641-3.076-8.872-5.6
			c-2.232-2.521-3.847-5.7-4.738-9.535c-0.99-3.855-1.48-8.43-1.48-13.781V40.276c0-1.479,0.043-3.262,0.127-5.291
			c0.175-2.031,0.252-3.591,0.309-4.676c-1.222,0.054-2.436,0.084-3.739,0.123c-1.224,0.024-2.438,0.061-3.658,0.123v-3.691h22.974
			v2.83H459.288z"/>
		<path d="M515.751,87.094v-2.83c2.639-0.123,4.407-0.615,5.309-1.519c0.98-0.88,1.521-2.11,1.605-3.701
			c0.084-1.563,0.129-3.36,0.129-5.362V36.5c0-1.146,0.029-2.253,0.179-3.308c0.058-1.076,0.113-2.021,0.169-2.883
			c-1.214,0.054-2.436,0.106-3.649,0.159c-1.301,0.063-2.523,0.117-3.74,0.169v-3.773c3.854-0.063,7.756-0.123,11.609-0.186
			c3.943-0.061,7.902-0.018,11.884,0.089c6.577,0.052,11.899,0.712,15.964,1.942c4.058,1.23,7.114,2.981,9.003,5.236
			c1.881,2.27,2.871,5.021,2.871,8.236c0.056,2.219-0.449,4.506-1.523,6.83c-1.069,2.336-2.962,4.41-5.737,6.238
			c-2.699,1.84-6.693,3.225-11.88,4.139c1.334,0.809,2.52,1.84,3.564,3.096c1.046,1.266,2.204,2.721,3.481,4.38l6.956,9.218
			c1.165,1.537,2.296,2.953,3.396,4.184s2.353,2.215,3.744,2.916c1.478,0.713,3.247,1.082,5.396,1.082v2.83h-12.972
			c-1.938-1.477-3.607-2.976-4.914-4.476c-1.387-1.491-2.736-3.18-4.127-5.063l-6.879-9.227c-0.926-1.198-1.955-2.584-3.085-4.178
			c-1.043-1.562-2.396-2.898-3.787-4c-1.102,0.057-2.245,0.099-3.438,0.099c-1.188,0-2.359-0.042-3.519-0.099v16.712
			c0,1.554-0.021,2.872-0.049,3.999c-0.028,1.125-0.1,2.047-0.302,2.785c0.87-0.061,1.648-0.094,2.525-0.123
			c0.78-0.024,1.562-0.061,2.431-0.123c0.786-0.061,1.655-0.093,2.436-0.093v3.784h-23.051V87.094z M538.105,56.974
			c3.715-0.105,7.033-0.64,9.877-1.554c2.843-0.914,5.089-2.371,6.656-4.379c1.653-2.013,2.523-4.65,2.523-7.928
			c0-2.162-0.394-4.071-1.088-5.723c-0.694-1.626-1.812-2.987-3.349-4.071c-1.541-1.104-3.426-1.903-5.749-2.458
			c-2.314-0.553-5.07-0.818-8.177-0.818c-2.492,0-4.247,0.425-5.258,1.286c-1.019,0.861-1.572,2.056-1.656,3.574
			c-0.084,1.509-0.127,3.308-0.127,5.372v16.54c1.096,0.053,2.152,0.105,3.082,0.158C535.86,57.027,536.948,57.027,538.105,56.974z"
			/>
		<path d="M620.329,45.093c-0.264-2.743-1.019-5.362-2.353-7.833c-1.422-2.461-3.361-4.474-6.005-6.027
			c-2.552-1.539-5.886-2.318-9.911-2.318c-4.215,0-7.488,1.023-9.75,3.011c-2.172,2.013-3.302,4.36-3.302,7.058
			c0,2.407,0.778,4.43,2.437,6.079c1.648,1.626,3.724,3.074,6.395,4.308c2.579,1.234,5.38,2.41,8.307,3.574
			c2.637,0.967,5.188,2.01,7.83,3.138c2.549,1.112,4.902,2.394,7.049,3.819c2.146,1.434,3.835,3.139,5.089,5.114
			c1.249,1.989,1.866,4.36,1.866,7.116c0,3.15-0.966,5.968-2.828,8.436c-1.854,2.467-4.597,4.392-8.128,5.795
			c-3.538,1.41-7.835,2.117-12.966,2.117c-3.136,0-6.269-0.383-9.573-1.128c-3.264-0.749-6.114-1.829-8.696-3.271l0.52,3.696h-5.308
			l-0.61-18.326h4.009c0.291,5.053,2.4,8.893,6.262,11.491c3.77,2.613,8.381,3.933,13.746,3.933c2.699,0,5.136-0.425,7.396-1.268
			c2.262-0.819,4.043-2.05,5.353-3.649c1.394-1.6,2.047-3.568,2.047-5.844c0-2.584-0.874-4.738-2.438-6.461
			c-1.655-1.723-3.804-3.211-6.352-4.489c-2.646-1.243-5.423-2.462-8.35-3.604c-2.56-0.967-5.166-1.999-7.661-3.104
			c-2.492-1.088-4.803-2.338-6.921-3.747c-2.115-1.404-3.706-3.081-5.044-5.031c-1.245-1.934-1.87-4.297-1.87-7.051
			c0-1.489,0.351-3.106,0.962-4.83c0.604-1.712,1.69-3.36,3.175-4.935c1.563-1.586,3.711-2.884,6.35-3.875
			c2.725-0.996,6.163-1.508,10.306-1.508c2.559,0,5.559,0.298,8.745,0.893c3.277,0.615,6.281,1.783,9.098,3.502l-0.442-3.702h5.222
			v18.922L620.329,45.093L620.329,45.093z"/>
	</g>
</g>
</svg>
